<svg width="53" height="23" viewBox="0 0 53 23" fill="none" xmlns="http://www.w3.org/2000/svg">
<rect x="1.20079" y="0.259381" width="51.5062" height="22.0741" rx="11.0371" stroke="#EEEEEE" stroke-width="0.432825"/>
<path d="M22.2107 5.73858V7.93214H20.8292V9.03498H22.1986C21.835 10.4529 21.2412 11.7133 20.4292 12.8283L20.9261 14.0886C21.4351 13.2645 21.8593 12.3556 22.2107 11.374V16.876H23.3378V11.071C23.6408 11.5073 24.0044 12.0526 24.4164 12.7071L25.0708 11.7254C24.4891 11.0225 23.9074 10.3923 23.3378 9.82272V9.03498H24.6467V7.93214H23.3378V5.73858H22.2107ZM25.7859 11.2407C25.4708 12.6586 24.9497 13.9796 24.1983 15.2157L25.2042 15.858C25.9071 14.6219 26.4524 13.1676 26.8402 11.4709L25.7859 11.2407ZM30.4517 11.1437L29.4216 11.483C29.8579 12.7919 30.2699 14.2826 30.6456 15.9792L31.7 15.5066C31.3485 13.9553 30.9365 12.501 30.4517 11.1437ZM27.5795 16.7549C28.3794 16.7549 28.7914 16.3428 28.7914 15.5308V10.356H31.6636V9.25312H24.7921V10.356H27.6401V15.2521C27.6401 15.5793 27.4826 15.749 27.1917 15.749C26.8524 15.749 26.4888 15.7247 26.1252 15.6762L26.3555 16.7549H27.5795ZM25.4223 6.33241V7.42313H31.0335V6.33241H25.4223ZM40.8863 12.6707C40.547 13.7493 40.1713 14.6825 39.735 15.4702H33.0695V16.5367H43.3707V15.4702H40.9711C41.3832 14.731 41.7346 13.8947 42.0255 12.9737L40.8863 12.6707ZM35.3842 12.7798L34.3299 13.1191C34.7177 13.7978 35.0206 14.5128 35.263 15.2642L36.3053 14.9976C36.0265 14.1614 35.7235 13.4221 35.3842 12.7798ZM38.1837 12.5374L37.1172 12.8767C37.4323 13.6039 37.6868 14.3553 37.8929 15.143L38.923 14.8885C38.7049 14.0038 38.4625 13.2161 38.1837 12.5374ZM35.0328 11.4709V12.3314H41.3953V11.483C41.9528 11.7375 42.5587 11.9799 43.201 12.1981L43.7585 11.2043C41.7952 10.5862 40.0743 9.73788 38.5715 8.6714H37.8444C36.4628 9.66517 34.7419 10.5014 32.6574 11.1801L33.2149 12.1859C33.8451 11.9557 34.451 11.7133 35.0328 11.4709ZM41.056 11.3255H35.3479C36.4507 10.8044 37.4081 10.2348 38.208 9.60457C39.0321 10.2469 39.9895 10.8165 41.056 11.3255ZM34.7177 7.67764H35.5175C35.7114 8.12604 35.8811 8.58657 36.0265 9.07133L37.0688 8.69564C36.9597 8.38054 36.8264 8.04121 36.6567 7.67764H38.1716V6.65963H35.1539C35.2388 6.41725 35.3236 6.17487 35.4085 5.90824L34.2935 5.66586C33.9784 6.73234 33.4573 7.72611 32.7059 8.65928L33.6997 9.28948C34.0753 8.80471 34.4147 8.25935 34.7177 7.67764ZM39.7956 7.67764H40.753C41.0075 8.1624 41.2377 8.65928 41.4317 9.19252L42.486 8.79259C42.3406 8.45326 42.1588 8.07757 41.9285 7.67764H43.6373V6.65963H40.2319C40.3167 6.41725 40.4015 6.17487 40.4742 5.90824L39.3835 5.66586C39.1411 6.56268 38.7291 7.38678 38.1716 8.1624L39.1411 8.78047C39.3835 8.44114 39.6017 8.06545 39.7956 7.67764Z" fill="black"/>
<path d="M9.4173 13.3162L14.5386 8.19487L13.8246 7.48085L8.70329 12.6022V13.3162H9.4173ZM9.83592 14.3261H7.69336V12.1836L13.4676 6.40932C13.5623 6.31466 13.6907 6.26147 13.8246 6.26147C13.9585 6.26147 14.0869 6.31466 14.1816 6.40932L15.6102 7.83786C15.7048 7.93256 15.758 8.06097 15.758 8.19487C15.758 8.32877 15.7048 8.45718 15.6102 8.55188L9.83592 14.3261ZM7.69336 15.3361H16.7827V16.346H7.69336V15.3361Z" fill="black"/>
</svg>
