<svg width="324" height="463" viewBox="0 0 324 463" fill="none" xmlns="http://www.w3.org/2000/svg">
<rect width="324" height="463" fill="#F7F7F7"/>

<path d="M51.4058 215.14C50.4847 215.14 49.7333 215.443 49.1758 216.073C48.6305 216.655 48.3517 217.43 48.3396 218.4H49.6606C49.6848 217.697 49.8303 217.176 50.1211 216.812C50.3999 216.437 50.8119 216.255 51.3573 216.255C51.8663 216.255 52.2662 216.376 52.5328 216.618C52.7995 216.861 52.9328 217.224 52.9328 217.709C52.9328 218.218 52.7267 218.691 52.3389 219.127C52.0966 219.381 51.6845 219.709 51.1028 220.121C50.1211 220.799 49.4667 221.321 49.1516 221.696C48.5699 222.351 48.2912 223.102 48.2912 223.963H54.2538V222.799H49.9272C50.109 222.326 50.6665 221.781 51.5997 221.163C52.4601 220.581 53.054 220.121 53.3933 219.769C53.9508 219.151 54.2416 218.473 54.2416 217.721C54.2416 216.958 53.975 216.34 53.4539 215.855C52.9207 215.37 52.2299 215.14 51.4058 215.14ZM58.5392 215.14C57.5212 215.14 56.7334 215.564 56.176 216.424C55.667 217.212 55.4125 218.279 55.4125 219.636C55.4125 220.981 55.667 222.048 56.176 222.848C56.7334 223.696 57.5212 224.132 58.5392 224.132C59.5572 224.132 60.3449 223.696 60.9024 222.848C61.4114 222.048 61.6659 220.969 61.6659 219.636C61.6659 218.291 61.4114 217.224 60.9024 216.424C60.3449 215.564 59.5572 215.14 58.5392 215.14ZM58.5392 216.255C59.2421 216.255 59.7511 216.643 60.042 217.43C60.248 217.964 60.3571 218.703 60.3571 219.636C60.3571 220.557 60.248 221.296 60.042 221.842C59.7511 222.617 59.2421 223.017 58.5392 223.017C57.8242 223.017 57.3273 222.617 57.0364 221.842C56.8183 221.296 56.7213 220.557 56.7213 219.636C56.7213 218.703 56.8183 217.964 57.0364 217.43C57.3273 216.643 57.8242 216.255 58.5392 216.255ZM65.9392 215.14C65.0182 215.14 64.2668 215.443 63.7093 216.073C63.164 216.655 62.8852 217.43 62.8731 218.4H64.1941C64.2183 217.697 64.3637 217.176 64.6546 216.812C64.9333 216.437 65.3454 216.255 65.8908 216.255C66.3998 216.255 66.7997 216.376 67.0663 216.618C67.3329 216.861 67.4662 217.224 67.4662 217.709C67.4662 218.218 67.2602 218.691 66.8724 219.127C66.63 219.381 66.218 219.709 65.6363 220.121C64.6546 220.799 64.0002 221.321 63.6851 221.696C63.1034 222.351 62.8246 223.102 62.8246 223.963H68.7872V222.799H64.4607C64.6425 222.326 65.2 221.781 66.1331 221.163C66.9936 220.581 67.5874 220.121 67.9268 219.769C68.4842 219.151 68.7751 218.473 68.7751 217.721C68.7751 216.958 68.5085 216.34 67.9874 215.855C67.4541 215.37 66.7633 215.14 65.9392 215.14ZM73.0727 215.14C72.0546 215.14 71.2669 215.564 70.7094 216.424C70.2004 217.212 69.9459 218.279 69.9459 219.636C69.9459 220.981 70.2004 222.048 70.7094 222.848C71.2669 223.696 72.0546 224.132 73.0727 224.132C74.0907 224.132 74.8784 223.696 75.4359 222.848C75.9449 222.048 76.1994 220.969 76.1994 219.636C76.1994 218.291 75.9449 217.224 75.4359 216.424C74.8784 215.564 74.0907 215.14 73.0727 215.14ZM73.0727 216.255C73.7756 216.255 74.2846 216.643 74.5754 217.43C74.7814 217.964 74.8905 218.703 74.8905 219.636C74.8905 220.557 74.7814 221.296 74.5754 221.842C74.2846 222.617 73.7756 223.017 73.0727 223.017C72.3576 223.017 71.8607 222.617 71.5699 221.842C71.3517 221.296 71.2548 220.557 71.2548 219.636C71.2548 218.703 71.3517 217.964 71.5699 217.43C71.8607 216.643 72.3576 216.255 73.0727 216.255ZM79.8304 216.4H82.8844V218.073H79.285V221.502H77.3823V222.629H82.8844V225.247H84.0357V222.629H88.132V221.502H84.0357V219.151H87.3321V218.073H84.0357V216.4H87.7563V215.285H80.3879C80.5333 214.922 80.6545 214.546 80.7757 214.134L79.588 213.916C79.176 215.443 78.364 216.655 77.1521 217.564L77.9277 218.533C78.6912 217.951 79.3214 217.249 79.8304 216.4ZM80.4485 221.502V219.151H82.8844V221.502H80.4485ZM91.6344 215.309C91.3435 215.625 90.98 215.903 90.5437 216.17C90.1074 216.412 89.7075 216.582 89.3196 216.679V217.988C90.1195 217.758 90.7861 217.394 91.3072 216.897V223.963H92.6282V215.309H91.6344ZM97.5389 215.14C96.6178 215.14 95.8664 215.443 95.309 216.073C94.7636 216.655 94.4849 217.43 94.4727 218.4H95.7937C95.818 217.697 95.9634 217.176 96.2542 216.812C96.533 216.437 96.945 216.255 97.4904 216.255C97.9994 216.255 98.3993 216.376 98.6659 216.618C98.9326 216.861 99.0659 217.224 99.0659 217.709C99.0659 218.218 98.8599 218.691 98.472 219.127C98.2297 219.381 97.8176 219.709 97.2359 220.121C96.2542 220.799 95.5998 221.321 95.2847 221.696C94.703 222.351 94.4243 223.102 94.4243 223.963H100.387V222.799H96.0603C96.2421 222.326 96.7996 221.781 97.7328 221.163C98.5932 220.581 99.1871 220.121 99.5264 219.769C100.084 219.151 100.375 218.473 100.375 217.721C100.375 216.958 100.108 216.34 99.587 215.855C99.0538 215.37 98.363 215.14 97.5389 215.14ZM104.963 218.448H109.871V220.351H104.963V218.448ZM109.871 217.37H104.963V215.552H109.871V217.37ZM104.903 221.418H109.871V223.538C109.871 223.853 109.738 224.023 109.484 224.023C109.023 224.023 108.526 223.999 107.993 223.975L108.308 225.102H109.859C110.635 225.102 111.035 224.714 111.035 223.938V214.449H103.812V220.4C103.788 222.048 103.4 223.405 102.636 224.472L103.521 225.284C104.284 224.253 104.745 222.969 104.903 221.418ZM115.967 215.309C115.676 215.625 115.313 215.903 114.877 216.17C114.44 216.412 114.04 216.582 113.653 216.679V217.988C114.452 217.758 115.119 217.394 115.64 216.897V223.963H116.961V215.309H115.967ZM121.86 215.14C120.866 215.14 120.066 215.576 119.484 216.461C118.903 217.333 118.624 218.473 118.624 219.878C118.624 221.199 118.89 222.229 119.424 222.969C119.981 223.744 120.781 224.132 121.848 224.132C122.696 224.132 123.423 223.841 124.005 223.284C124.574 222.726 124.865 222.011 124.865 221.151C124.865 220.303 124.611 219.6 124.114 219.054C123.605 218.521 122.926 218.254 122.078 218.254C121.617 218.254 121.217 218.339 120.878 218.521C120.502 218.703 120.199 218.982 119.957 219.369H119.908C119.896 219.297 119.896 219.248 119.896 219.212C119.896 218.363 120.066 217.673 120.417 217.115C120.769 216.521 121.242 216.231 121.848 216.231C122.72 216.231 123.241 216.643 123.423 217.491H124.708C124.49 215.915 123.532 215.14 121.86 215.14ZM121.811 219.321C122.344 219.321 122.781 219.491 123.096 219.83C123.411 220.145 123.568 220.593 123.568 221.151C123.568 221.696 123.399 222.145 123.072 222.508C122.756 222.86 122.332 223.041 121.799 223.041C121.278 223.041 120.854 222.872 120.539 222.532C120.211 222.193 120.054 221.745 120.054 221.187C120.054 220.618 120.211 220.169 120.527 219.83C120.842 219.491 121.266 219.321 121.811 219.321ZM135.428 214.437H127.66V225.162H128.811V224.302H134.277V225.15H135.428V214.437ZM128.811 223.175V219.806H134.277V223.175H128.811ZM128.811 218.679V215.552H134.277V218.679H128.811ZM147.16 215.782V216.63H145.075V217.576H147.16V218.557H144.736V219.563H150.699V218.557H148.275V217.576H150.323V216.63H148.275V215.782H147.16ZM152.395 214.437H143.051V219.333C143.027 221.393 142.688 223.09 142.033 224.435L142.906 225.223C143.754 223.696 144.178 221.696 144.203 219.236V215.491H151.256V223.684C151.256 223.975 151.098 224.12 150.795 224.12C150.335 224.12 149.838 224.096 149.305 224.059L149.608 225.15H151.147C151.971 225.15 152.395 224.787 152.395 224.084V214.437ZM145.112 220.29V223.429H150.202V220.29H145.112ZM149.099 222.448H146.214V221.248H149.099V222.448ZM164.793 214.716H154.613V225.029H155.776V224.411H163.63V225.029H164.793V214.716ZM155.776 223.381V215.758H157.8V218.242C157.776 219.6 157.17 220.593 155.97 221.224L156.855 221.999C158.2 221.211 158.891 219.963 158.915 218.242V215.758H160.442V220.4C160.442 221.127 160.842 221.49 161.642 221.49H163.302V220.448H161.981C161.691 220.448 161.545 220.339 161.545 220.121V215.758H163.63V223.381H155.776Z" fill="#979797"/>
<path opacity="0.3" d="M28.088 219.619C28.088 221.296 26.7335 222.649 25.0702 222.649C23.4069 222.649 22.0524 221.296 22.0524 219.619C22.0524 217.942 23.4069 216.589 25.0702 216.589C26.7335 216.589 28.088 217.942 28.088 219.619Z" stroke="#4C4C4C" stroke-width="2.59695"/>
<line x1="-1.89194e-08" y1="200.358" x2="324.619" y2="200.358" stroke="#EBEBEB" stroke-width="0.432825"/>
<g filter="url(#filter0_d_393_3019)">
<path d="M0 0H325V86.687C325 96.2487 317.249 104 307.687 104H17.313C7.7513 104 0 96.2487 0 86.687V0Z" fill="white"/>
</g>
<rect x="57.999" y="74.1897" width="53.6704" height="19.0443" rx="4.32825" fill="#F4F4F4"/>
<path opacity="0.66" d="M83.9338 79.984V80.68H86.1672C86.0841 81.1371 85.9698 81.5734 85.8036 81.9889H83.456V82.7056H85.4712C85.4297 82.768 85.3881 82.8303 85.3466 82.903C84.848 83.6509 84.1104 84.3054 83.1236 84.8455L83.591 85.4376C84.6298 84.804 85.4193 84.0872 85.9491 83.2874C86.053 83.1004 86.1568 82.9134 86.2607 82.7056H87.2579C87.8293 83.786 88.8057 84.6689 90.1873 85.3441L90.5093 84.6897C89.3874 84.2119 88.5564 83.547 88.0162 82.7056H90.1977V81.9889H86.5516C86.697 81.5838 86.8113 81.1475 86.9151 80.68H89.7406V79.984H83.9338ZM84.5675 85.4688C84.1935 86.4868 83.7469 87.3594 83.2379 88.0969L83.8507 88.5332C84.3597 87.7541 84.8064 86.8296 85.1908 85.77L84.5675 85.4688ZM81.7212 79.7243L81.2018 80.2229C81.8978 80.7008 82.4484 81.1579 82.8431 81.5838L83.3521 81.0747C82.9158 80.6177 82.3653 80.171 81.7212 79.7243ZM81.4719 82.207L80.9629 82.7056C81.6693 83.2458 82.2198 83.7652 82.625 84.243L83.134 83.734C82.6873 83.225 82.1367 82.716 81.4719 82.207ZM82.4172 85.0741C82.0121 86.3206 81.5343 87.5464 80.9941 88.7306L81.6901 89.0422C82.1887 87.8788 82.6561 86.6426 83.0716 85.3338L82.4172 85.0741ZM85.9283 89.1045C86.4477 89.1045 86.7074 88.8033 86.7074 88.2112V84.2326H85.9906V88.0346C85.9906 88.3047 85.8764 88.4501 85.6686 88.4501C85.3985 88.4501 85.1077 88.4293 84.8064 88.3982L84.9622 89.1045H85.9283ZM89.1381 85.2195L88.4837 85.4376C88.9408 86.3102 89.3563 87.3282 89.7406 88.4709L90.4054 88.18C90.0523 87.1308 89.6264 86.144 89.1381 85.2195ZM87.7669 85.5934L87.1333 85.8116C87.5384 86.6842 87.902 87.6814 88.2344 88.8241L88.8992 88.5228C88.5772 87.484 88.2032 86.5076 87.7669 85.5934ZM100.357 81.1163H96.9602V88.9383H97.6769V88.2423H99.6298V88.9383H100.357V81.1163ZM97.6769 87.5256V81.8331H99.6298V87.5256H97.6769ZM93.1374 79.5997V81.698H91.4754V82.4252H93.1374C93.1063 85.2714 92.483 87.349 91.278 88.6475L91.8286 89.1357C93.1582 87.7229 93.8438 85.4896 93.8854 82.4252H95.2669C95.2462 85.2091 95.2046 86.8815 95.1423 87.4217C95.0592 88.0138 94.7475 88.3151 94.2178 88.3151C93.9685 88.3151 93.6776 88.2943 93.3452 88.2735L93.5322 88.9591C93.9061 88.9799 94.1658 89.0006 94.3216 89.0006C95.2358 89.0006 95.7448 88.5644 95.8487 87.7126C95.9525 86.9439 96.0045 84.939 96.0045 81.698H93.8854V79.5997H93.1374Z" fill="#0E0E0E"/>
<path d="M71.3547 83.2172V80.2493H72.344V83.2172H75.3119V84.2065H72.344V87.1745H71.3547V84.2065H68.3867V83.2172H71.3547Z" fill="#5C5C5C"/>
<path d="M11.9025 87.2466V80.5306C11.9025 80.427 11.9343 80.3258 11.9938 80.2409C12.0532 80.156 12.1374 80.0914 12.2348 80.056L17.1183 78.2805C17.1564 78.2666 17.1973 78.2621 17.2376 78.2675C17.2778 78.2728 17.3162 78.2877 17.3495 78.311C17.3827 78.3343 17.4099 78.3652 17.4286 78.4012C17.4473 78.4373 17.4571 78.4773 17.4571 78.5178V81.0189L20.6464 82.0819C20.747 82.1154 20.8345 82.1797 20.8965 82.2657C20.9585 82.3517 20.9919 82.4551 20.9918 82.5611V87.2466H22.0018V88.2566H10.8926V87.2466H11.9025ZM12.9124 87.2466H16.4472V79.599L12.9124 80.8846V87.2466ZM19.9819 87.2466V82.9252L17.4571 82.0834V87.2466H19.9819Z" fill="#C1C1C1"/>
<path d="M28.6033 78.7944C27.9394 80.8876 26.9266 82.5756 25.5762 83.8472L26.4202 84.5787C27.7368 83.3408 28.7947 81.5403 29.5936 79.1883L28.6033 78.7944ZM32.8346 84.7588L31.8781 85.0851C32.2832 85.6928 32.6658 86.368 33.0372 87.1107C31.5517 87.3358 29.9988 87.5046 28.4008 87.6171C29.3236 86.3455 30.2463 84.7588 31.1466 82.8569L30.1001 82.4968C28.6596 85.6816 27.5455 87.4033 26.7465 87.6622L26.9378 88.6975C29.3461 88.5399 31.518 88.3149 33.4761 88.0223C33.6336 88.3599 33.7799 88.72 33.9375 89.0801L34.939 88.63C34.3539 87.257 33.6449 85.9741 32.8346 84.7588ZM32.6433 78.7044L31.7318 79.2221C32.3733 81.4165 33.5099 83.2058 35.1416 84.6012L35.9068 83.7234C34.3539 82.4293 33.2735 80.7525 32.6433 78.7044ZM37.9325 83.4309V87.0995H43.0865V83.4309H37.9325ZM42.0625 86.1542H38.9565V84.3874H42.0625V86.1542ZM44.9546 89.0013C45.7874 89.0013 46.2038 88.5624 46.2038 87.6847V79.0758H37.5949V80.1111H45.1347V87.3921C45.1347 87.7972 44.9996 87.9998 44.7296 87.9998L43.1316 87.9773L43.4016 89.0013H44.9546ZM37.0209 81.2927V82.2718H44.1331V81.2927H37.0209Z" fill="#C1C1C1"/>
<path d="M34.4551 49.3398C32.272 49.8349 29.5711 50.0938 26.3639 50.0938L26.7015 51.0616C28.0294 51.0616 29.256 51.0166 30.4039 50.9378V52.4795H26.6002V53.5148H30.4039V55.1128H25.6662V56.1369H30.4039V58.185C30.4039 58.4438 30.2463 58.5789 29.9313 58.5789C29.4136 58.5789 28.8734 58.5564 28.3108 58.5226L28.5583 59.5579H30.3026C31.0791 59.5579 31.473 59.1866 31.473 58.4438V56.1369H35.8056V55.1128H31.473V53.5148H34.9615V52.4795H31.473V50.8478C32.8009 50.7127 33.9712 50.5102 34.9841 50.2401L34.4551 49.3398ZM36.9759 51.3767V52.4007H38.5064C38.135 53.7061 37.5498 54.854 36.7396 55.8668L37.201 57.0259C37.7412 56.2044 38.2025 55.3041 38.5627 54.3138V59.5917H39.6205V53.9312C39.8793 54.3363 40.1832 54.854 40.532 55.4729L41.1622 54.5276C40.6445 53.92 40.1381 53.3685 39.6205 52.8734V52.4007H40.9259V51.3767H39.6205V49.2723H38.5627V51.3767H36.9759ZM40.2732 58.939L41.151 59.7267C41.6799 58.894 42.04 58.0387 42.2313 57.1384C42.4338 56.2607 42.5351 55.1916 42.5351 53.9312V50.6565H44.2569V58.2976C44.2569 59.0178 44.662 59.3779 45.4835 59.3779H45.9787C46.3613 59.3779 46.6539 59.2991 46.834 59.1641C47.0028 58.9953 47.1153 58.7027 47.1603 58.2863C47.2166 57.8587 47.2503 57.2285 47.2503 56.3732L46.2713 56.0694C46.2713 57.2397 46.2375 57.9037 46.1925 58.0837C46.17 58.1738 46.1362 58.2525 46.08 58.3088C46.0237 58.3538 45.9449 58.3763 45.8436 58.3763H45.4948C45.3823 58.3763 45.3372 58.3088 45.3372 58.185V49.6436H41.4773V53.9312C41.4773 55.1691 41.3985 56.1144 41.2522 56.7671C41.0609 57.5323 40.7346 58.2525 40.2732 58.939Z" fill="#C1C1C1"/>
<path d="M15.1169 54.4798C15.5908 55.3122 16.2801 56.0016 17.1126 56.4754L17.5589 55.8502C17.6307 55.7497 17.7369 55.679 17.8573 55.6515C17.9777 55.6239 18.104 55.6415 18.2124 55.7008C18.9265 56.0911 19.7152 56.3258 20.5266 56.3895C20.6532 56.3996 20.7714 56.457 20.8576 56.5503C20.9438 56.6436 20.9917 56.766 20.9917 56.893V59.1461C20.9917 59.2712 20.9454 59.3918 20.8616 59.4846C20.7778 59.5774 20.6626 59.6358 20.5382 59.6486C20.2706 59.6763 20.0009 59.69 19.7293 59.69C15.4068 59.69 11.9023 56.1855 11.9023 51.8631C11.9023 51.5914 11.916 51.3217 11.9438 51.0541C11.9565 50.9297 12.0149 50.8145 12.1078 50.7307C12.2006 50.647 12.3212 50.6006 12.4462 50.6006H14.6993C14.8264 50.6006 14.9487 50.6485 15.042 50.7347C15.1354 50.8209 15.1927 50.9391 15.2028 51.0657C15.2665 51.8771 15.5013 52.6658 15.8916 53.38C15.9509 53.4883 15.9684 53.6146 15.9409 53.7351C15.9133 53.8555 15.8426 53.9616 15.7421 54.0334L15.1169 54.4798V54.4798ZM13.8434 54.148L14.8029 53.4628C14.5306 52.875 14.344 52.2513 14.2489 51.6106H12.9173C12.9143 51.6944 12.9128 51.7787 12.9128 51.8631C12.9123 55.6281 15.9643 58.6801 19.7293 58.6801C19.8136 58.6801 19.8979 58.6785 19.9818 58.675V57.3434C19.341 57.2483 18.7173 57.0618 18.1295 56.7895L17.4443 57.7489C17.1684 57.6417 16.9005 57.5152 16.6424 57.3702L16.6131 57.3535C15.6227 56.7898 14.8025 55.9696 14.2388 54.9792L14.2221 54.9499C14.0772 54.6919 13.9506 54.4239 13.8434 54.148V54.148Z" fill="#C1C1C1"/>
<path d="M28.0744 21.5178L27.1404 21.9679C27.5005 22.5081 27.8494 23.127 28.1757 23.8135H25.79V24.8375H29.3236C28.6484 25.9966 27.3542 27.0432 25.4524 27.9773L26.0376 28.9451C28.0857 27.7972 29.4699 26.4355 30.1901 24.86V29.3277H31.2704V24.8938C32.0582 26.3793 33.3861 27.7184 35.2766 28.9338L36.0081 28.011C34.1963 27.0657 32.9022 26.0079 32.1144 24.8375H35.648V23.8135H33.296C33.6674 23.217 34.005 22.5531 34.3088 21.8104L33.2735 21.439C32.9809 22.2717 32.6433 23.0707 32.2382 23.8135H31.2704V21.2364H35.3217V20.2124H31.2704V19.0082H30.1901V20.2124H26.2289V21.2364H30.1901V23.8135H28.232L29.0985 23.3746C28.7721 22.6994 28.4345 22.0804 28.0744 21.5178ZM37.7412 19.1433L37.0209 19.8297C37.8762 20.4599 38.5514 21.0339 39.024 21.574L39.7555 20.8538C39.2041 20.2911 38.5289 19.7172 37.7412 19.1433ZM37.5386 21.9004L36.8184 22.5868C37.6286 23.1945 38.2476 23.7572 38.6864 24.2749L39.4067 23.5434C38.9003 23.0032 38.2813 22.4518 37.5386 21.9004ZM38.6189 24.9726C38.1463 26.3005 37.5724 27.6059 36.9197 28.8775L37.9212 29.3164C38.5176 28.0785 39.0578 26.7506 39.5417 25.3327L38.6189 24.9726ZM41.7474 21.1577V25.2652H43.593V28.011C43.593 28.2811 43.4804 28.4161 43.2554 28.4161C42.9853 28.4161 42.7152 28.3936 42.4338 28.3486L42.6589 29.3164H43.6042C44.2682 29.3164 44.6058 28.9563 44.6058 28.2586V25.2652H46.4063V21.1577H44.3019C44.4032 20.8763 44.482 20.5837 44.5495 20.2911H46.969V19.3458H40.0931V23.2395C40.0594 25.5465 39.6993 27.3471 39.024 28.6412L39.8343 29.3614C40.6445 27.8197 41.0722 25.7828 41.1172 23.2395V20.2911H43.5367C43.4692 20.5837 43.3904 20.8651 43.2891 21.1577H41.7474ZM45.4723 24.4212H42.6814V23.5997H45.4723V24.4212ZM42.6814 22.8232V21.9792H45.4723V22.8232H42.6814ZM41.9274 25.9516C41.7136 26.7619 41.3535 27.5271 40.8471 28.2248L41.7024 28.765C42.2088 28.0335 42.6027 27.167 42.8727 26.1542L41.9274 25.9516ZM46.0237 25.8954L45.1347 26.1992C45.5398 26.9419 45.9112 27.7859 46.2488 28.7537L47.149 28.3599C46.834 27.4821 46.4513 26.6606 46.0237 25.8954Z" fill="#C1C1C1"/>
<path d="M18.7835 20.37L18.0261 21.1275C17.5269 20.9159 16.9902 20.8071 16.4481 20.8078C14.2161 20.8078 12.4084 22.6156 12.4084 24.8475C12.4084 27.0795 14.2161 28.8872 16.4481 28.8872C18.68 28.8872 20.4878 27.0795 20.4878 24.8475C20.4885 24.3054 20.3797 23.7687 20.1681 23.2695L20.9256 22.5121C21.3025 23.2328 21.4988 24.0342 21.4977 24.8475C21.4977 27.6349 19.2355 29.8972 16.4481 29.8972C13.6607 29.8972 11.3984 27.6349 11.3984 24.8475C11.3984 22.0601 13.6607 19.7979 16.4481 19.7979C17.2903 19.7979 18.0847 20.0049 18.7835 20.37ZM19.6617 20.9199L20.3757 21.634L16.4481 25.5616L15.7341 24.8475L19.6617 20.9199V20.9199Z" fill="#C1C1C1"/>
<line x1="-1.89194e-08" y1="1.25859" x2="324.619" y2="1.25856" stroke="#EBEBEB" stroke-width="0.432825"/>
<path d="M90.8283 179.702H83.1933V183.922H84.3879V183.429H89.6207V183.922H90.8283V179.702ZM84.3879 182.312V180.806H89.6207V182.312H84.3879ZM85.0891 174.015C84.2321 175.209 83.2063 176.131 82.0117 176.806L82.8037 177.754C83.3361 177.417 83.8425 177.027 84.323 176.612C84.7904 177.014 85.2838 177.391 85.8292 177.728C84.5048 178.183 82.8557 178.559 80.882 178.845L81.3495 179.936C83.6607 179.546 85.5825 179.04 87.0887 178.404C88.6729 179.144 90.4907 179.572 92.5423 179.689L92.815 178.572C91.2049 178.481 89.7376 178.209 88.4132 177.741C89.3221 177.222 89.9973 176.625 90.4648 175.949V174.963H85.8162C85.972 174.742 86.1408 174.508 86.2966 174.274L85.0891 174.015ZM87.1277 177.209C86.4395 176.871 85.8032 176.482 85.2059 176.014H88.9715C88.5041 176.456 87.8808 176.845 87.1277 177.209ZM92.2826 172.768H87.4783C87.3484 172.405 87.2186 172.093 87.0887 171.807L85.7253 172.015C85.8811 172.249 86.011 172.508 86.1408 172.768H81.5053V175.391H82.7518V173.872H91.0361V175.391H92.2826V172.768ZM103.566 174.599V176.806H96.4897V174.599H103.566ZM96.4767 178.014H104.813V173.391H100.697C100.489 172.807 100.281 172.275 100.06 171.794L98.7361 172.002C98.9957 172.431 99.2295 172.898 99.4372 173.391H95.2691V177.637C95.2561 179.871 94.7497 181.702 93.7629 183.117L94.6718 183.948C95.8015 182.286 96.3988 180.299 96.4767 178.014ZM107.475 172.703V173.885H112.305V172.703H107.475ZM106.994 176.209V177.404H108.656C108.059 179.585 107.592 180.923 107.241 181.429C107.189 181.468 107.111 181.507 106.981 181.533L107.28 182.701C108.864 182.416 110.331 182.039 111.695 181.572L112.032 182.403L113.097 181.857C112.552 180.546 111.981 179.338 111.383 178.248L110.344 178.754C110.643 179.312 110.942 179.91 111.24 180.546C110.37 180.871 109.5 181.13 108.643 181.312C108.981 180.481 109.384 179.183 109.851 177.404H112.773V176.209H106.994ZM114.539 171.937V174.456H112.889V175.651H114.539V175.768C114.513 179.157 113.707 181.611 112.136 183.143L113.058 183.961C114.824 182.234 115.72 179.507 115.759 175.768V175.651H117.369C117.343 179.105 117.304 181.143 117.226 181.754C117.122 182.377 116.798 182.688 116.227 182.688C115.889 182.688 115.486 182.663 115.019 182.624L115.305 183.714C115.824 183.74 116.188 183.766 116.395 183.766C117.577 183.766 118.239 183.273 118.382 182.286C118.499 181.299 118.564 178.689 118.564 174.456H115.759V171.937H114.539ZM125.212 171.768C125.16 172.262 125.069 172.716 124.952 173.158H120.46V174.339H124.498C124.29 174.742 124.03 175.105 123.732 175.43C122.927 176.274 121.628 176.923 119.81 177.378L120.291 178.52C121.823 178.118 123.018 177.598 123.901 176.975C124.511 177.469 125.095 178.001 125.64 178.572L126.497 177.715C125.835 177.131 125.238 176.651 124.706 176.261L124.745 176.222C125.199 175.677 125.576 175.053 125.861 174.339H125.913C126.549 176.066 128.289 177.443 131.146 178.481L131.795 177.417C129.328 176.664 127.783 175.638 127.16 174.339H131.12V173.158H126.225C126.316 172.768 126.394 172.353 126.446 171.898L125.212 171.768ZM121.07 179.455C120.836 180.572 120.46 181.611 119.927 182.572L120.992 183.234C121.537 182.247 121.966 181.078 122.277 179.728L121.07 179.455ZM126.277 178.962L125.199 179.312C125.602 179.962 125.978 180.728 126.329 181.598L127.458 181.091C127.121 180.325 126.731 179.611 126.277 178.962ZM130.185 179.248L129.004 179.624C129.601 180.559 130.159 181.624 130.653 182.844L131.782 182.338C131.328 181.234 130.795 180.208 130.185 179.248ZM127.679 183.61C128.185 183.61 128.562 183.494 128.809 183.273C129.094 183.039 129.276 182.338 129.38 181.143L128.211 180.767C128.16 181.572 128.069 182.039 127.939 182.182C127.835 182.338 127.679 182.416 127.445 182.416H124.745C124.381 182.416 124.212 182.234 124.212 181.883V179.416H122.966V182.13C122.966 183.117 123.42 183.61 124.355 183.61H127.679Z" fill="#C1C1C1"/>
<rect x="14.7158" y="164.217" width="51.9391" height="25.9695" rx="12.9848" fill="white"/>
<path d="M32.7673 171.885C31.2611 173.482 29.3783 174.82 27.1189 175.897L27.7162 176.975C28.3655 176.651 28.9887 176.313 29.586 175.949V177.118H32.5855V179.066H28.9238V180.26H32.5855V182.312H27.7682V183.52H38.6624V182.312H33.8321V180.26H37.4808V179.066H33.8321V177.118H36.8315V175.949C37.4029 176.313 38.0002 176.638 38.6494 176.949L39.2597 175.846C37.1432 174.885 35.2734 173.56 33.6503 171.885H32.7673ZM29.612 175.936C31.0144 175.066 32.2219 174.093 33.2088 173.002C34.2476 174.119 35.4552 175.105 36.8056 175.936H29.612ZM42.3371 174.56L41.2204 174.963C41.4931 175.482 41.7268 176.04 41.9346 176.625H40.3244V177.806H46.8558V176.625H45.4534C45.7261 176.105 45.9728 175.521 46.2065 174.872L45.0769 174.482C44.8431 175.235 44.5575 175.949 44.2458 176.625H43.0902C42.8565 175.82 42.6098 175.131 42.3371 174.56ZM47.3622 172.34V183.857H48.5568V173.482H50.5045C50.089 174.833 49.6735 176.001 49.245 176.975C50.2578 178.183 50.7772 179.157 50.7902 179.897C50.7772 180.351 50.7382 180.65 50.6603 180.78C50.5824 180.936 50.3876 181.013 50.102 181.026C49.7773 181.026 49.3878 181 48.9204 180.949L49.3099 182.247C50.4006 182.247 51.1407 182.065 51.5043 181.728C51.8419 181.39 52.0237 180.78 52.0237 179.897C52.0107 179.144 51.5173 178.17 50.5564 176.975C51.0239 175.833 51.4654 174.599 51.8679 173.275V172.34H47.3622ZM40.5712 173.067V174.248H46.7389V173.067H44.1679C44.0641 172.612 43.9472 172.197 43.8303 171.82L42.5708 172.028C42.7007 172.34 42.8305 172.69 42.9603 173.067H40.5712ZM46.3364 178.754H41.0126V183.844H42.2202V183.169H45.1028V183.844H46.3364V178.754ZM42.2202 182V179.923H45.1028V182H42.2202Z" fill="#1B1B1B"/>
<path d="M158.566 175.781H161.76V177.001H158.566V175.781ZM161.76 174.716H158.566V173.469H161.76V174.716ZM162.902 178.559C162.422 179.17 161.916 179.637 161.383 179.975C161.085 179.403 160.877 178.78 160.747 178.105H162.954V172.353H157.371V182.156C157.371 182.364 157.241 182.507 157.007 182.598L157.267 183.636C158.695 183.273 159.89 182.909 160.838 182.52L160.526 181.364C159.877 181.676 159.228 181.935 158.566 182.143V178.105H159.643C160.059 180.494 161.266 182.377 163.279 183.766L163.967 182.688C163.136 182.169 162.461 181.559 161.942 180.858C162.578 180.494 163.162 179.988 163.682 179.325L162.902 178.559ZM152.385 172.353V176.664H154.255V181.922C154.008 181.987 153.761 182.052 153.501 182.117V177.819H152.411V182.351C152.242 182.39 152.06 182.429 151.865 182.468L152.203 183.649C153.943 183.247 155.462 182.818 156.774 182.377V181.182C156.332 181.325 155.878 181.468 155.41 181.611V179.598H156.657V178.455H155.41V176.664H156.579V172.353H152.385ZM155.41 175.521H153.566V173.495H155.41V175.521ZM166.149 172.028L165.292 172.846C166.227 173.599 166.941 174.287 167.447 174.937L168.33 174.054C167.733 173.378 167.006 172.703 166.149 172.028ZM173.576 183.662H176.549L176.848 182.442C176.497 182.468 175.991 182.494 175.342 182.507C174.68 182.52 174.03 182.533 173.407 182.533C172.407 182.533 171.55 182.52 170.823 182.507C170.07 182.481 169.512 182.364 169.135 182.182C168.811 182.013 168.499 181.754 168.213 181.403C168.148 181.325 168.083 181.273 168.031 181.221V176.3H165.123V177.443H166.876V181.117C166.356 181.377 165.772 182.039 165.123 183.091L166.032 183.935C166.694 182.766 167.161 182.182 167.421 182.182C167.577 182.182 167.733 182.286 167.902 182.507C168.291 182.948 168.733 183.26 169.252 183.416C169.784 183.545 170.46 183.623 171.291 183.636C172.109 183.649 172.875 183.662 173.576 183.662ZM169.096 173.846V175.002H170.525V175.923C170.525 176.404 170.499 176.858 170.447 177.3H168.642V178.468H170.213C169.927 179.507 169.421 180.286 168.694 180.806L169.434 181.793C170.395 181.065 171.044 179.962 171.407 178.468H173.472V182H174.667V178.468H176.627V177.3H174.667V175.002H176.212V173.846H174.667V171.898H173.472V173.846H171.706V171.885H170.525V173.846H169.096ZM171.706 175.002H173.472V177.3H171.615C171.667 176.78 171.706 176.235 171.706 175.638V175.002ZM178.458 172.703V173.885H183.289V172.703H178.458ZM177.978 176.209V177.404H179.64C179.043 179.585 178.575 180.923 178.224 181.429C178.173 181.468 178.095 181.507 177.965 181.533L178.263 182.701C179.848 182.416 181.315 182.039 182.678 181.572L183.016 182.403L184.081 181.857C183.535 180.546 182.964 179.338 182.367 178.248L181.328 178.754C181.626 179.312 181.925 179.91 182.224 180.546C181.354 180.871 180.484 181.13 179.627 181.312C179.964 180.481 180.367 179.183 180.834 177.404H183.756V176.209H177.978ZM185.522 171.937V174.456H183.873V175.651H185.522V175.768C185.496 179.157 184.691 181.611 183.12 183.143L184.042 183.961C185.808 182.234 186.704 179.507 186.742 175.768V175.651H188.353C188.327 179.105 188.288 181.143 188.21 181.754C188.106 182.377 187.781 182.688 187.21 182.688C186.872 182.688 186.47 182.663 186.002 182.624L186.288 183.714C186.807 183.74 187.171 183.766 187.379 183.766C188.56 183.766 189.223 183.273 189.365 182.286C189.482 181.299 189.547 178.689 189.547 174.456H186.742V171.937H185.522ZM196.195 171.768C196.143 172.262 196.053 172.716 195.936 173.158H191.443V174.339H195.481C195.273 174.742 195.014 175.105 194.715 175.43C193.91 176.274 192.612 176.923 190.794 177.378L191.274 178.52C192.806 178.118 194.001 177.598 194.884 176.975C195.494 177.469 196.079 178.001 196.624 178.572L197.481 177.715C196.819 177.131 196.221 176.651 195.689 176.261L195.728 176.222C196.182 175.677 196.559 175.053 196.845 174.339H196.897C197.533 176.066 199.273 177.443 202.129 178.481L202.779 177.417C200.312 176.664 198.766 175.638 198.143 174.339H202.103V173.158H197.208C197.299 172.768 197.377 172.353 197.429 171.898L196.195 171.768ZM192.053 179.455C191.82 180.572 191.443 181.611 190.911 182.572L191.975 183.234C192.521 182.247 192.949 181.078 193.261 179.728L192.053 179.455ZM197.26 178.962L196.182 179.312C196.585 179.962 196.961 180.728 197.312 181.598L198.442 181.091C198.104 180.325 197.715 179.611 197.26 178.962ZM201.169 179.248L199.987 179.624C200.584 180.559 201.143 181.624 201.636 182.844L202.766 182.338C202.311 181.234 201.779 180.208 201.169 179.248ZM198.662 183.61C199.169 183.61 199.545 183.494 199.792 183.273C200.078 183.039 200.26 182.338 200.363 181.143L199.195 180.767C199.143 181.572 199.052 182.039 198.922 182.182C198.818 182.338 198.662 182.416 198.429 182.416H195.728C195.364 182.416 195.196 182.234 195.196 181.883V179.416H193.949V182.13C193.949 183.117 194.403 183.61 195.338 183.61H198.662Z" fill="#C1C1C1"/>
<rect x="12.9844" y="112.278" width="298.65" height="41.5512" rx="8.65651" fill="white"/>
<path d="M29.4711 127.181C28.1657 128.644 26.5227 129.859 24.5534 130.827L25.1273 131.862C27.0854 130.816 28.6721 129.578 29.865 128.137C31.1592 129.668 32.7234 130.906 34.5577 131.851L35.1429 130.816C33.2973 129.938 31.6768 128.723 30.2589 127.181H29.4711ZM29.6512 130.208V136.116H27.7606V131.828H26.7028V136.116H25.0823V137.151H34.5127V136.116H30.7203V133.64H33.7024V132.616H30.7203V130.208H29.6512ZM39.3629 127.26V136.105H36.0994V137.151H46.1375V136.105H42.8515V127.26H41.7824V136.105H40.432V127.26H39.3629ZM44.9559 129.353C44.4833 131.378 43.9206 133.055 43.2904 134.361L44.2469 134.698C44.9221 133.246 45.4736 131.558 45.9012 129.623L44.9559 129.353ZM37.236 129.33L36.3245 129.623C36.9097 131.266 37.4048 132.976 37.7875 134.743L38.7665 134.496C38.3164 132.56 37.81 130.838 37.236 129.33ZM49.0184 127.068C48.9059 127.811 48.7708 128.531 48.6358 129.229H47.3304V130.253H48.4107C48.1406 131.367 47.848 132.402 47.5104 133.37C48.1181 133.82 48.6808 134.248 49.1985 134.664C48.6921 135.463 48.0394 136.15 47.2404 136.724L47.9718 137.624C48.7933 136.994 49.4798 136.229 50.0312 135.351C50.5264 135.778 50.9653 136.184 51.3254 136.555L52.0568 135.711C51.6742 135.328 51.1678 134.889 50.5376 134.406C51.1453 133.1 51.4942 131.57 51.5729 129.814V129.229H49.6936C49.8174 128.587 49.9412 127.901 50.065 127.158L49.0184 127.068ZM49.6824 133.764C49.3785 133.539 49.0409 133.291 48.6808 133.044C48.9509 132.29 49.221 131.356 49.4798 130.253H50.5264C50.4363 131.558 50.155 132.729 49.6824 133.764ZM51.843 131.806V132.841H54.285V135.857C54.285 136.24 54.1725 136.431 53.9587 136.431C53.4185 136.431 52.9121 136.42 52.4507 136.42L52.732 137.433H54.3976C55.0278 137.433 55.3541 137.016 55.3541 136.184V132.841H57.5485V131.806H55.3541V130.838C56.0181 130.163 56.6145 129.454 57.1434 128.7V127.665H52.1581V128.7H55.9168C55.3991 129.398 54.8477 130.005 54.285 130.512V131.806H51.843ZM58.7977 128.633V129.668H61.6448C61.431 130.973 61.1609 132.087 60.8233 132.988C60.2944 134.316 59.5066 135.508 58.4601 136.589L59.1465 137.466C60.3169 136.285 61.2059 134.946 61.8023 133.449C61.9374 133.066 62.0724 132.65 62.1962 132.2C62.5338 133.325 63.1077 134.304 63.918 135.137C63.0402 135.722 61.9599 136.206 60.677 136.566L61.2284 137.579C62.5788 137.118 63.7379 136.532 64.7057 135.835C65.6285 136.555 66.8101 137.129 68.2393 137.534L68.7795 136.555C67.4966 136.229 66.4163 135.756 65.5385 135.137C66.4613 134.259 67.1252 133.235 67.5416 132.054V131.12H62.455C62.5451 130.669 62.6351 130.185 62.7251 129.668H68.6107V128.633H62.8714C62.9277 128.171 62.984 127.687 63.0402 127.181H61.9599C61.9149 127.676 61.8586 128.16 61.8023 128.633H58.7977ZM63.1528 132.11H66.4275C66.0674 133.01 65.516 133.809 64.7507 134.496C64.0418 133.82 63.5129 133.033 63.1528 132.11Z" fill="#C1C1C1"/>
<path d="M299.326 133.054L296.47 130.198L297.286 129.382L300.958 133.054L297.286 136.727L296.47 135.911L299.326 133.054Z" fill="#E3E3E3"/>
<path d="M287.411 129.228C287.141 129.521 286.803 129.779 286.398 130.027C285.993 130.252 285.621 130.41 285.261 130.5V131.715C286.004 131.501 286.623 131.164 287.107 130.702V137.263H288.333V129.228H287.411Z" fill="black"/>
<path fill-rule="evenodd" clip-rule="evenodd" d="M25.1035 260.305C31.7967 260.305 37.2226 254.879 37.2226 248.186C37.2226 241.492 31.7967 236.066 25.1035 236.066C18.4103 236.066 12.9844 241.492 12.9844 248.186C12.9844 254.879 18.4103 260.305 25.1035 260.305Z" fill="#1C9FFF"/>
<g clip-path="url(#clip0_393_3019)">
<path d="M26.4318 252.387C25.956 252.533 25.4634 252.615 24.9663 252.633C24.3297 252.664 23.6921 252.603 23.0731 252.452C22.969 252.438 22.8633 252.449 22.764 252.483C22.2879 252.713 21.8049 252.959 21.3297 253.188C21.1479 253.283 20.9817 253.299 20.8232 253.172C20.6726 253.061 20.6562 252.895 20.6726 252.697C20.7358 252.301 20.7834 251.904 20.8232 251.508C20.8169 251.411 20.7775 251.318 20.7116 251.247C20.0857 250.621 19.5481 249.932 19.2781 249.06C18.7708 247.333 19.2305 245.852 20.4822 244.616C22.7718 242.374 26.7729 242.478 28.9595 244.797C29.736 245.622 30.1628 246.596 30.1801 247.729C29.9896 247.643 29.7749 247.594 29.5533 247.594H29.5213C29.1629 247.609 28.8215 247.751 28.5586 247.995C28.2958 248.239 28.1288 248.569 28.0878 248.926C28.072 249.057 28.072 249.19 28.0878 249.321C27.8108 249.598 27.4697 249.773 27.0499 249.845H27.0412C26.7737 249.902 26.5277 250.034 26.3318 250.225C26.1359 250.415 25.9981 250.658 25.9343 250.924C25.8706 251.19 25.8835 251.469 25.9715 251.728C26.0595 251.987 26.2191 252.215 26.4318 252.387V252.387Z" fill="white"/>
<path d="M29.5531 248.308C29.902 248.308 30.2266 248.537 30.2976 248.901C30.3928 249.449 30.6309 249.924 31.0187 250.32C31.0663 250.368 31.0343 250.502 31.0507 250.582C30.9555 250.582 30.8369 250.613 30.7893 250.565C30.3928 250.153 29.902 249.939 29.3549 249.821C29.1783 249.779 29.0234 249.673 28.9196 249.524C28.8158 249.375 28.7705 249.193 28.7922 249.013C28.8142 248.824 28.903 248.649 29.0427 248.52C29.1824 248.39 29.3637 248.315 29.554 248.308H29.5531ZM32.5007 251.271C32.5007 251.652 32.2704 251.96 31.8904 252.031C31.3745 252.12 30.8987 252.367 30.5278 252.736C30.4482 252.816 30.3296 252.887 30.2508 252.768C30.2188 252.704 30.2344 252.555 30.282 252.507C30.6629 252.11 30.8923 251.667 30.9875 251.12C31.0226 250.933 31.1269 250.767 31.2795 250.654C31.4321 250.54 31.6219 250.489 31.8107 250.51C31.9997 250.528 32.175 250.616 32.3026 250.757C32.4301 250.898 32.5007 251.081 32.5007 251.271V251.271ZM30.314 253.457C30.3144 253.642 30.248 253.821 30.1271 253.96C30.0063 254.1 29.839 254.191 29.6561 254.217C29.2917 254.265 28.9117 254.036 28.832 253.671C28.7212 253.109 28.484 252.618 28.072 252.206C28.0244 252.158 28.0555 252.055 28.04 251.975C28.1196 251.975 28.2538 251.944 28.2858 251.975C28.6979 252.387 29.2043 252.618 29.7669 252.752C30.1158 252.816 30.2976 253.133 30.314 253.457ZM26.6064 251.255C26.6079 251.089 26.666 250.929 26.7712 250.8C26.8764 250.672 27.0223 250.584 27.1847 250.55C27.7206 250.462 28.2161 250.21 28.6026 249.829C28.6502 249.781 28.7688 249.797 28.8485 249.797C28.832 249.876 28.8641 249.995 28.8165 250.042C28.42 250.439 28.2062 250.914 28.0954 251.461C28.0603 251.645 27.9539 251.807 27.7995 251.913C27.645 252.018 27.4551 252.058 27.2713 252.024C27.0882 251.993 26.9215 251.9 26.8001 251.76C26.6787 251.619 26.6102 251.441 26.6064 251.255V251.255Z" fill="white"/>
</g>
<g filter="url(#filter1_d_393_3019)">
<rect x="51.9395" y="230.873" width="259.695" height="55.4017" rx="6.92521" fill="white"/>
</g>
<path d="M65.1663 241.902V242.83H68.1442C68.0334 243.439 67.881 244.021 67.6594 244.575H64.5292V245.53H67.2162C67.1608 245.613 67.1054 245.697 67.05 245.794C66.3852 246.791 65.4018 247.663 64.086 248.384L64.7093 249.173C66.0943 248.328 67.1469 247.372 67.8533 246.306C67.9918 246.057 68.1303 245.807 68.2688 245.53H69.5985C70.3602 246.971 71.6622 248.148 73.5043 249.048L73.9337 248.176C72.4378 247.539 71.3298 246.652 70.6096 245.53H73.5181V244.575H68.6566C68.8506 244.035 69.0029 243.453 69.1414 242.83H72.9087V241.902H65.1663ZM66.0112 249.215C65.5126 250.572 64.917 251.735 64.2384 252.719L65.0555 253.3C65.7342 252.262 66.3298 251.029 66.8422 249.616L66.0112 249.215ZM62.2162 241.555L61.5237 242.22C62.4517 242.857 63.1857 243.467 63.712 244.035L64.3907 243.356C63.809 242.746 63.0749 242.151 62.2162 241.555ZM61.8838 244.866L61.2051 245.53C62.1469 246.251 62.881 246.943 63.4212 247.58L64.0999 246.902C63.5043 246.223 62.7702 245.544 61.8838 244.866ZM63.1442 248.688C62.604 250.35 61.9669 251.985 61.2467 253.564L62.1747 253.979C62.8395 252.428 63.4627 250.78 64.0168 249.035L63.1442 248.688ZM67.8256 254.062C68.5181 254.062 68.8644 253.661 68.8644 252.871V247.566H67.9087V252.636C67.9087 252.996 67.7564 253.19 67.4794 253.19C67.1192 253.19 66.7314 253.162 66.3298 253.12L66.5375 254.062H67.8256ZM72.1054 248.882L71.2328 249.173C71.8422 250.336 72.3963 251.694 72.9087 253.217L73.7951 252.83C73.3242 251.431 72.7564 250.115 72.1054 248.882ZM70.2771 249.381L69.4323 249.672C69.9724 250.835 70.4572 252.165 70.9004 253.688L71.7868 253.287C71.3575 251.902 70.8589 250.6 70.2771 249.381ZM87.0638 243.411H82.5348V253.841H83.4904V252.913H86.0943V253.841H87.0638V243.411ZM83.4904 251.957V244.367H86.0943V251.957H83.4904ZM77.4378 241.389V244.187H75.2217V245.156H77.4378C77.3963 248.951 76.5652 251.722 74.9586 253.453L75.6927 254.104C77.4655 252.22 78.3796 249.242 78.435 245.156H80.2771C80.2494 248.868 80.194 251.098 80.1109 251.818C80.0001 252.608 79.5846 253.01 78.8783 253.01C78.5458 253.01 78.158 252.982 77.7148 252.954L77.9641 253.868C78.4627 253.896 78.809 253.924 79.0168 253.924C80.2356 253.924 80.9143 253.342 81.0528 252.206C81.1913 251.181 81.2605 248.508 81.2605 244.187H78.435V241.389H77.4378ZM94.8616 241.389C93.2273 243.217 91.1913 244.755 88.7536 245.974L89.2799 246.929C91.7453 245.627 93.7259 244.076 95.2217 242.276C96.8561 244.187 98.809 245.738 101.108 246.915L101.648 245.96C99.363 244.852 97.3409 243.328 95.5819 241.389H94.8616ZM95.1109 245.046V252.525H92.4517V247.04H91.4683V252.525H89.3769V253.494H100.9V252.525H96.122V249.118H99.9032V248.162H96.122V245.046H95.1109ZM107.064 241.486V252.497H102.936V253.467H115.208V252.497H111.053V241.486H110.042V252.497H108.075V241.486H107.064ZM113.948 244.007C113.352 246.541 112.646 248.633 111.842 250.267L112.743 250.586C113.587 248.771 114.28 246.666 114.834 244.256L113.948 244.007ZM104.128 243.979L103.283 244.256C104.031 246.306 104.654 248.439 105.152 250.655L106.067 250.42C105.499 247.996 104.848 245.849 104.128 243.979ZM126.385 244.464H127.743C127.701 246.264 127.479 247.857 127.064 249.228C126.69 248.148 126.385 246.874 126.15 245.433C126.233 245.129 126.302 244.81 126.385 244.464ZM126.662 250.336C126.164 251.5 125.485 252.442 124.626 253.176L125.152 254.007C125.928 253.314 126.593 252.456 127.119 251.431C127.59 252.483 128.158 253.328 128.809 253.965L129.377 253.12C128.67 252.483 128.061 251.597 127.549 250.461C128.2 248.813 128.546 246.818 128.601 244.464H129.155V243.536H126.565C126.676 242.885 126.787 242.192 126.884 241.444L126.011 241.292C125.72 244.076 125.166 246.292 124.363 247.94L124.917 248.633C125.194 248.107 125.457 247.525 125.707 246.86C125.97 248.162 126.288 249.325 126.662 250.336ZM123.172 253.203C123.892 252.733 124.612 252.123 125.319 251.375L125.111 250.53C124.695 250.946 124.294 251.32 123.906 251.666V248.564H120.623V250.087C120.61 251.5 120.236 252.58 119.502 253.328L120.236 253.965C121.08 253.107 121.524 251.818 121.551 250.087V249.464H123.02V251.985C122.992 252.151 122.895 252.289 122.756 252.372L123.172 253.203ZM121.953 241.348V244.492H120.984V242.095H120.152V245.35H124.585V242.095H123.767V244.492H122.798V241.348H121.953ZM118.781 241.389C118.297 242.663 117.521 243.785 116.468 244.769L116.773 245.738C118.089 244.589 119.044 243.273 119.64 241.791L118.781 241.389ZM118.864 245.101C118.38 246.458 117.604 247.649 116.524 248.702L116.815 249.658C117.272 249.242 117.687 248.813 118.061 248.356V254.076H118.989V247.012C119.266 246.541 119.502 246.029 119.695 245.503L118.864 245.101ZM120.125 246.583V247.469H124.446V246.583H120.125ZM131.981 246.292V254.076H132.964V244.658C133.449 243.716 133.851 242.719 134.183 241.652L133.255 241.223C132.632 243.384 131.648 245.309 130.291 246.985L130.61 248.051C131.108 247.497 131.565 246.902 131.981 246.292ZM134.128 243.176V244.118H143.144V243.176H138.781L139.308 242.982C139.141 242.469 138.92 241.915 138.629 241.306L137.673 241.569C137.95 242.095 138.186 242.622 138.393 243.176H134.128ZM135.402 245.24V246.14H141.953V245.24H135.402ZM135.402 247.192V248.107H141.953V247.192H135.402ZM142.202 249.242H135.139V254.048H136.108V253.3H141.233V254.048H142.202V249.242ZM136.108 252.359V250.17H141.233V252.359H136.108ZM146.648 241.195C146.496 242.151 146.33 243.079 146.136 243.993H144.46V244.949H145.928C145.596 246.361 145.222 247.677 144.792 248.896C145.568 249.464 146.288 250.004 146.925 250.517C146.274 251.597 145.429 252.511 144.377 253.273L145.056 254.104C146.122 253.287 147.008 252.303 147.701 251.154C148.393 251.735 148.989 252.262 149.46 252.76L150.139 251.971C149.626 251.472 148.975 250.904 148.172 250.281C148.948 248.661 149.405 246.749 149.529 244.561V243.993H147.133C147.299 243.162 147.466 242.248 147.632 241.278L146.648 241.195ZM147.369 249.672C146.911 249.339 146.413 248.979 145.887 248.605C146.247 247.636 146.593 246.417 146.925 244.949H148.546C148.421 246.722 148.033 248.3 147.369 249.672ZM150 247.165V248.134H153.13V252.262C153.13 252.733 152.964 252.968 152.646 252.968C151.981 252.968 151.357 252.954 150.79 252.954L151.053 253.896H153.047C153.767 253.896 154.141 253.453 154.141 252.566V248.134H156.967V247.165H154.141V245.724C154.972 244.893 155.734 243.993 156.399 243.037V242.068H150.402V243.037H155.263C154.585 243.979 153.878 244.769 153.13 245.42V247.165H150ZM158.574 243.259V244.228H162.244C161.967 245.974 161.607 247.442 161.164 248.633C160.499 250.267 159.515 251.763 158.213 253.107L158.837 253.91C160.277 252.469 161.357 250.849 162.078 249.021C162.272 248.494 162.466 247.899 162.632 247.234H162.729C163.186 248.744 163.961 250.046 165.056 251.126C163.92 251.929 162.521 252.594 160.845 253.107L161.371 254.048C163.089 253.453 164.571 252.691 165.79 251.777C166.967 252.733 168.463 253.481 170.277 254.007L170.776 253.093C169.114 252.649 167.701 251.999 166.551 251.126C167.756 250.018 168.643 248.702 169.197 247.179V246.306H162.853C162.992 245.669 163.116 244.976 163.241 244.228H170.568V243.259H163.38C163.463 242.663 163.532 242.026 163.601 241.361H162.604C162.535 242.012 162.466 242.649 162.382 243.259H158.574ZM163.657 247.234H168.144C167.659 248.481 166.884 249.575 165.817 250.517C164.848 249.616 164.128 248.522 163.657 247.234Z" fill="black"/>

<defs>
<filter id="filter0_d_393_3019" x="-12.9848" y="-9.52216" width="350.97" height="129.97" filterUnits="userSpaceOnUse" color-interpolation-filters="sRGB">
<feFlood flood-opacity="0" result="BackgroundImageFix"/>
<feColorMatrix in="SourceAlpha" type="matrix" values="0 0 0 0 0 0 0 0 0 0 0 0 0 0 0 0 0 0 127 0" result="hardAlpha"/>
<feOffset dy="3.4626"/>
<feGaussianBlur stdDeviation="6.49238"/>
<feColorMatrix type="matrix" values="0 0 0 0 0 0 0 0 0 0 0 0 0 0 0 0 0 0 0.03 0"/>
<feBlend mode="normal" in2="BackgroundImageFix" result="effect1_dropShadow_393_3019"/>
<feBlend mode="normal" in="SourceGraphic" in2="effect1_dropShadow_393_3019" result="shape"/>
</filter>
<filter id="filter1_d_393_3019" x="38.9547" y="219.619" width="285.665" height="81.3712" filterUnits="userSpaceOnUse" color-interpolation-filters="sRGB">
<feFlood flood-opacity="0" result="BackgroundImageFix"/>
<feColorMatrix in="SourceAlpha" type="matrix" values="0 0 0 0 0 0 0 0 0 0 0 0 0 0 0 0 0 0 127 0" result="hardAlpha"/>
<feOffset dy="1.7313"/>
<feGaussianBlur stdDeviation="6.49238"/>
<feColorMatrix type="matrix" values="0 0 0 0 0 0 0 0 0 0 0 0 0 0 0 0 0 0 0.03 0"/>
<feBlend mode="normal" in2="BackgroundImageFix" result="effect1_dropShadow_393_3019"/>
<feBlend mode="normal" in="SourceGraphic" in2="effect1_dropShadow_393_3019" result="shape"/>
</filter>
<filter id="filter2_d_393_3019" x="39.8199" y="305.319" width="273.546" height="126.385" filterUnits="userSpaceOnUse" color-interpolation-filters="sRGB">
<feFlood flood-opacity="0" result="BackgroundImageFix"/>
<feColorMatrix in="SourceAlpha" type="matrix" values="0 0 0 0 0 0 0 0 0 0 0 0 0 0 0 0 0 0 127 0" result="hardAlpha"/>
<feOffset dy="3.4626"/>
<feGaussianBlur stdDeviation="3.4626"/>
<feComposite in2="hardAlpha" operator="out"/>
<feColorMatrix type="matrix" values="0 0 0 0 0.911328 0 0 0 0 0.911328 0 0 0 0 0.911328 0 0 0 0.7 0"/>
<feBlend mode="normal" in2="BackgroundImageFix" result="effect1_dropShadow_393_3019"/>
<feBlend mode="normal" in="SourceGraphic" in2="effect1_dropShadow_393_3019" result="shape"/>
</filter>
<linearGradient id="paint0_linear_393_3019" x1="71.4338" y1="327.668" x2="69.6909" y2="330.944" gradientUnits="userSpaceOnUse">
<stop stop-color="#1940CC"/>
<stop offset="1" stop-color="#3776FF"/>
</linearGradient>
<linearGradient id="paint1_linear_393_3019" x1="67.9821" y1="328.319" x2="68.9326" y2="333.421" gradientUnits="userSpaceOnUse">
<stop stop-color="#1C96FF"/>
<stop offset="0.974813" stop-color="#3C72FF"/>
</linearGradient>
<linearGradient id="paint2_linear_393_3019" x1="66.2385" y1="326.117" x2="65.9038" y2="330.464" gradientUnits="userSpaceOnUse">
<stop stop-color="#1C92FF"/>
<stop offset="1" stop-color="#1C9FFF"/>
</linearGradient>
<linearGradient id="paint3_linear_393_3019" x1="64.3592" y1="332.534" x2="61.5802" y2="325.403" gradientUnits="userSpaceOnUse">
<stop stop-color="#1C9FFF"/>
<stop offset="1" stop-color="#00FFFF"/>
</linearGradient>
<clipPath id="clip0_393_3019">
<rect width="13.8504" height="13.8504" fill="white" transform="translate(19.0713 241.26)"/>
</clipPath>
<clipPath id="clip1_393_3019">
</clipPath>
</defs>
</svg>
